<svg width="24" height="24" viewBox="0 0 24 24" fill="none" xmlns="http://www.w3.org/2000/svg">
<path d="M14 8V6M14 8H16M14 8H12M14 4V6M14 6H16M14 6H12" stroke="currentColor" stroke-width="1.5" stroke-linecap="round"/>
<path d="M4 14.5C4 11.8748 4 10.5622 4.34226 9.51098C4.87989 7.98062 6.06222 6.75159 7.54595 6.19534C8.56222 5.84164 9.82514 5.84164 12.351 5.84164H14.149C16.6749 5.84164 17.9378 5.84164 18.9541 6.19534C20.4378 6.75159 21.6201 7.98062 22.1577 9.51098C22.5 10.5622 22.5 11.8748 22.5 14.5C22.5 17.1252 22.5 18.4378 22.1577 19.489C21.6201 21.0194 20.4378 22.2484 18.9541 22.8047C17.9378 23.1584 16.6749 23.1584 14.149 23.1584H12.351C9.82514 23.1584 8.56222 23.1584 7.54595 22.8047C6.06222 22.2484 4.87989 21.0194 4.34226 19.489C4 18.4378 4 17.1252 4 14.5Z" stroke="currentColor" stroke-width="1.5"/>
<path d="M13.5 14.5C13.5 15.8807 12.3807 17 11 17C9.61929 17 8.5 15.8807 8.5 14.5C8.5 13.1193 9.61929 12 11 12C12.3807 12 13.5 13.1193 13.5 14.5Z" stroke="currentColor" stroke-width="1.5"/>
<path d="M13.5 14.5H18.5" stroke="currentColor" stroke-width="1.5" stroke-linecap="round"/>
</svg>
